<svg width="445" height="101" viewBox="0 0 445 101" fill="none" xmlns="http://www.w3.org/2000/svg">
<path fill-rule="evenodd" clip-rule="evenodd" d="M28.5952 7.89429L55.2168 22.9718V53.2154L28.5952 68.2929L1.97363 53.2154V22.9718L28.5952 7.89429ZM7.10931 25.9653V50.2219L28.5952 62.3908L50.0812 50.2219V25.9653L28.5952 13.7964L7.10931 25.9653Z" fill="#343139" fill-opacity="0.968627"/>
<path fill-rule="evenodd" clip-rule="evenodd" d="M74.0296 7.89429L100.651 22.9718V53.2154L74.0296 68.2929L47.408 53.2154V22.9718L74.0296 7.89429ZM74.0296 13.7964L52.5436 25.9653V50.2219L74.0296 62.3908L95.5155 50.2219V25.9653L74.0296 13.7964Z" fill="#343139" fill-opacity="0.968627"/>
<path fill-rule="evenodd" clip-rule="evenodd" d="M51.1436 32.0011L76.2607 47.1756V77.3192L51.1436 92.498L26.0264 77.3192V47.1756L51.1436 32.0011ZM31.1621 50.0731V74.4222L51.1436 86.4973L71.125 74.4222V50.0731L51.1436 38.0013L31.1621 50.0731Z" fill="#343139" fill-opacity="0.968627"/>
<path d="M153.278 74.7801C158.962 74.7801 163.866 72.6069 166.652 69.8207V51.2646H151.941V58.0072H159.296V66.1429C158.126 67.0902 156.12 67.6474 154.114 67.6474C146.034 67.6474 141.91 62.2979 141.91 53.2706C141.91 44.4662 146.647 39.1167 153.557 39.1167C157.234 39.1167 159.575 40.6212 161.637 42.5716L165.983 37.2778C163.308 34.603 159.185 32.0397 153.278 32.0397C142.3 32.0397 133.496 39.9526 133.496 53.5492C133.496 67.3131 142.077 74.7801 153.278 74.7801ZM181.721 74.7801C184.618 74.7801 186.847 72.4954 186.847 69.4306C186.847 66.3658 184.618 64.1368 181.721 64.1368C178.767 64.1368 176.65 66.3658 176.65 69.4306C176.65 72.4954 178.767 74.7801 181.721 74.7801ZM212.07 74.7801C222.156 74.7801 228.007 69.152 228.007 55.4996V32.7641H220.095V56.224C220.095 64.7498 216.918 67.6474 212.07 67.6474C207.222 67.6474 204.213 64.7498 204.213 56.224V32.7641H196.022V55.4996C196.022 69.152 201.984 74.7801 212.07 74.7801ZM242.353 74.7801C245.251 74.7801 247.48 72.4954 247.48 69.4306C247.48 66.3658 245.251 64.1368 242.353 64.1368C239.4 64.1368 237.283 66.3658 237.283 69.4306C237.283 72.4954 239.4 74.7801 242.353 74.7801ZM258.782 74H273.493C282.52 74 289.43 70.155 289.43 61.8521C289.43 56.3354 286.143 53.1592 281.74 52.1004V51.8775C285.251 50.5959 287.313 46.7509 287.313 42.9617C287.313 35.2717 280.849 32.7641 272.379 32.7641H258.782V74ZM267.029 49.5371V39.1167H271.933C276.892 39.1167 279.288 40.5098 279.288 44.1319C279.288 47.4753 277.06 49.5371 271.821 49.5371H267.029ZM267.029 67.6474V55.6668H272.769C278.453 55.6668 281.406 57.3942 281.406 61.4063C281.406 65.6414 278.341 67.6474 272.769 67.6474H267.029ZM298.307 74H306.498V55.4439C308.225 50.9302 311.179 49.2585 313.575 49.2585C314.912 49.2585 315.748 49.4814 316.863 49.76L318.256 42.7388C317.308 42.293 316.305 42.0701 314.634 42.0701C311.402 42.0701 308.003 44.2433 305.774 48.3669H305.606L304.938 42.8502H298.307V74ZM324.895 74H333.087V42.8502H324.895V74ZM328.963 37.7793C331.805 37.7793 333.755 35.9961 333.755 33.2657C333.755 30.5909 331.805 28.8634 328.963 28.8634C326.121 28.8634 324.227 30.5909 324.227 33.2657C324.227 35.9961 326.121 37.7793 328.963 37.7793ZM355.061 74.7801C358.293 74.7801 361.413 73.0527 363.698 70.768H363.865L364.478 74H371.165V29.5879H362.974V40.5098L363.308 45.4135C361.023 43.3517 358.85 42.0701 355.339 42.0701C348.652 42.0701 342.244 48.2554 342.244 58.453C342.244 68.7062 347.259 74.7801 355.061 74.7801ZM357.122 68.0375C353.055 68.0375 350.658 64.8612 350.658 58.3415C350.658 52.1004 353.668 48.757 357.178 48.757C359.129 48.757 361.135 49.4257 362.974 51.1531V64.8612C361.19 67.1459 359.351 68.0375 357.122 68.0375ZM393.13 87.541C403.551 87.541 410.182 82.8044 410.182 76.5076C410.182 70.9909 406.058 68.7062 398.536 68.7062H393.186C389.564 68.7062 388.282 67.7589 388.282 66.1429C388.282 64.8612 388.784 64.1926 389.62 63.4124C391.013 63.9139 392.406 64.1368 393.632 64.1368C400.374 64.1368 405.724 60.6262 405.724 53.5492C405.724 51.6546 405.111 49.9272 404.275 48.8684H409.625V42.8502H398.368C397.087 42.3487 395.415 42.0701 393.632 42.0701C387.056 42.0701 381.038 45.9708 381.038 53.3263C381.038 57.0041 383.1 59.9575 385.273 61.5178V61.7407C383.323 63.0781 381.763 65.1956 381.763 67.536C381.763 70.0993 382.988 71.771 384.604 72.8298V73.1084C381.707 74.6687 380.147 76.9534 380.147 79.5724C380.147 85.0334 385.83 87.541 393.13 87.541ZM393.632 59.1217C390.901 59.1217 388.728 57.0041 388.728 53.3263C388.728 49.6486 390.901 47.6425 393.632 47.6425C396.418 47.6425 398.536 49.6486 398.536 53.3263C398.536 57.0041 396.362 59.1217 393.632 59.1217ZM394.412 82.3586C389.843 82.3586 386.945 80.9098 386.945 78.2908C386.945 77.0091 387.558 75.7832 389.007 74.613C390.121 74.9473 391.403 75.0588 393.297 75.0588H397.087C400.43 75.0588 402.269 75.6717 402.269 77.9007C402.269 80.2968 399.093 82.3586 394.412 82.3586ZM429.958 74.7801C433.803 74.7801 437.704 73.4985 440.768 71.381L438.038 66.3101C435.753 67.7032 433.524 68.4833 431.017 68.4833C426.392 68.4833 423.048 65.8643 422.324 60.7377H441.604C441.771 59.9575 441.939 58.5087 441.939 56.9484C441.939 48.3112 437.536 42.0701 428.899 42.0701C421.544 42.0701 414.411 48.3112 414.411 58.453C414.411 68.7619 421.209 74.7801 429.958 74.7801ZM422.212 55.2767C422.881 50.7073 425.779 48.3669 429.066 48.3669C433.078 48.3669 434.973 51.0417 434.973 55.2767H422.212Z" fill="#322F37"/>
</svg>
