<svg width="576" height="101" viewBox="0 0 576 101" fill="none" xmlns="http://www.w3.org/2000/svg">
<path fill-rule="evenodd" clip-rule="evenodd" d="M28.5952 7.89429L55.2168 22.9718V53.2154L28.5952 68.2929L1.97363 53.2154V22.9718L28.5952 7.89429ZM7.10931 25.9653V50.2219L28.5952 62.3908L50.0812 50.2219V25.9653L28.5952 13.7964L7.10931 25.9653Z" fill="#343139" fill-opacity="0.968627"/>
<path fill-rule="evenodd" clip-rule="evenodd" d="M74.0296 7.89429L100.651 22.9718V53.2154L74.0296 68.2929L47.408 53.2154V22.9718L74.0296 7.89429ZM74.0296 13.7964L52.5436 25.9653V50.2219L74.0296 62.3908L95.5155 50.2219V25.9653L74.0296 13.7964Z" fill="#343139" fill-opacity="0.968627"/>
<path fill-rule="evenodd" clip-rule="evenodd" d="M51.1436 32.0011L76.2607 47.1756V77.3192L51.1436 92.498L26.0264 77.3192V47.1756L51.1436 32.0011ZM31.1621 50.0731V74.4222L51.1436 86.4973L71.125 74.4222V50.0731L51.1436 38.0013L31.1621 50.0731Z" fill="#343139" fill-opacity="0.968627"/>
<path d="M153.278 74.7801C158.962 74.7801 163.866 72.6069 166.652 69.8207V51.2646H151.941V58.0072H159.296V66.1429C158.126 67.0902 156.12 67.6474 154.114 67.6474C146.034 67.6474 141.91 62.2979 141.91 53.2706C141.91 44.4662 146.647 39.1167 153.557 39.1167C157.234 39.1167 159.575 40.6212 161.637 42.5716L165.983 37.2778C163.308 34.603 159.185 32.0397 153.278 32.0397C142.3 32.0397 133.496 39.9526 133.496 53.5492C133.496 67.3131 142.077 74.7801 153.278 74.7801ZM181.721 74.7801C184.618 74.7801 186.847 72.4954 186.847 69.4306C186.847 66.3658 184.618 64.1368 181.721 64.1368C178.767 64.1368 176.65 66.3658 176.65 69.4306C176.65 72.4954 178.767 74.7801 181.721 74.7801ZM212.07 74.7801C222.156 74.7801 228.007 69.152 228.007 55.4996V32.7641H220.095V56.224C220.095 64.7498 216.918 67.6474 212.07 67.6474C207.222 67.6474 204.213 64.7498 204.213 56.224V32.7641H196.022V55.4996C196.022 69.152 201.984 74.7801 212.07 74.7801ZM242.353 74.7801C245.251 74.7801 247.48 72.4954 247.48 69.4306C247.48 66.3658 245.251 64.1368 242.353 64.1368C239.4 64.1368 237.283 66.3658 237.283 69.4306C237.283 72.4954 239.4 74.7801 242.353 74.7801ZM258.782 74H266.583V57.5057C266.583 52.7134 265.915 47.531 265.525 43.1288H265.803L269.983 51.9332L281.908 74H290.322V32.7641H282.465V49.2028C282.465 53.8836 283.133 59.4003 283.579 63.691H283.301L279.121 54.7752L267.141 32.7641H258.782V74ZM302.784 74H311.032V57.2828H325.687V50.4287H311.032V39.6182H328.195V32.7641H302.784V74ZM345.836 74H354.083V39.6182H365.73V32.7641H334.19V39.6182H345.836V74ZM389.625 74H404.336C413.363 74 420.273 70.155 420.273 61.8521C420.273 56.3354 416.985 53.1592 412.583 52.1004V51.8775C416.094 50.5959 418.156 46.7509 418.156 42.9617C418.156 35.2717 411.692 32.7641 403.222 32.7641H389.625V74ZM397.872 49.5371V39.1167H402.776C407.735 39.1167 410.131 40.5098 410.131 44.1319C410.131 47.4753 407.902 49.5371 402.664 49.5371H397.872ZM397.872 67.6474V55.6668H403.612C409.296 55.6668 412.249 57.3942 412.249 61.4063C412.249 65.6414 409.184 67.6474 403.612 67.6474H397.872ZM429.149 74H437.341V55.4439C439.068 50.9302 442.022 49.2585 444.418 49.2585C445.755 49.2585 446.591 49.4814 447.706 49.76L449.099 42.7388C448.151 42.293 447.148 42.0701 445.477 42.0701C442.245 42.0701 438.845 44.2433 436.616 48.3669H436.449L435.781 42.8502H429.149V74ZM455.738 74H463.93V42.8502H455.738V74ZM459.806 37.7793C462.648 37.7793 464.598 35.9961 464.598 33.2657C464.598 30.5909 462.648 28.8634 459.806 28.8634C456.964 28.8634 455.069 30.5909 455.069 33.2657C455.069 35.9961 456.964 37.7793 459.806 37.7793ZM485.904 74.7801C489.136 74.7801 492.256 73.0527 494.541 70.768H494.708L495.321 74H502.008V29.5879H493.816V40.5098L494.151 45.4135C491.866 43.3517 489.693 42.0701 486.182 42.0701C479.495 42.0701 473.087 48.2554 473.087 58.453C473.087 68.7062 478.102 74.7801 485.904 74.7801ZM487.965 68.0375C483.898 68.0375 481.501 64.8612 481.501 58.3415C481.501 52.1004 484.51 48.757 488.021 48.757C489.971 48.757 491.978 49.4257 493.816 51.1531V64.8612C492.033 67.1459 490.194 68.0375 487.965 68.0375ZM523.973 87.541C534.394 87.541 541.025 82.8044 541.025 76.5076C541.025 70.9909 536.901 68.7062 529.378 68.7062H524.029C520.407 68.7062 519.125 67.7589 519.125 66.1429C519.125 64.8612 519.627 64.1926 520.463 63.4124C521.856 63.9139 523.249 64.1368 524.475 64.1368C531.217 64.1368 536.567 60.6262 536.567 53.5492C536.567 51.6546 535.954 49.9272 535.118 48.8684H540.468V42.8502H529.211C527.93 42.3487 526.258 42.0701 524.475 42.0701C517.899 42.0701 511.881 45.9708 511.881 53.3263C511.881 57.0041 513.943 59.9575 516.116 61.5178V61.7407C514.166 63.0781 512.605 65.1956 512.605 67.536C512.605 70.0993 513.831 71.771 515.447 72.8298V73.1084C512.55 74.6687 510.989 76.9534 510.989 79.5724C510.989 85.0334 516.673 87.541 523.973 87.541ZM524.475 59.1217C521.744 59.1217 519.571 57.0041 519.571 53.3263C519.571 49.6486 521.744 47.6425 524.475 47.6425C527.261 47.6425 529.378 49.6486 529.378 53.3263C529.378 57.0041 527.205 59.1217 524.475 59.1217ZM525.255 82.3586C520.685 82.3586 517.788 80.9098 517.788 78.2908C517.788 77.0091 518.401 75.7832 519.85 74.613C520.964 74.9473 522.246 75.0588 524.14 75.0588H527.93C531.273 75.0588 533.112 75.6717 533.112 77.9007C533.112 80.2968 529.936 82.3586 525.255 82.3586ZM560.801 74.7801C564.646 74.7801 568.546 73.4985 571.611 71.381L568.881 66.3101C566.596 67.7032 564.367 68.4833 561.86 68.4833C557.234 68.4833 553.891 65.8643 553.167 60.7377H572.447C572.614 59.9575 572.781 58.5087 572.781 56.9484C572.781 48.3112 568.379 42.0701 559.742 42.0701C552.386 42.0701 545.254 48.3112 545.254 58.453C545.254 68.7619 552.052 74.7801 560.801 74.7801ZM553.055 55.2767C553.724 50.7073 556.621 48.3669 559.909 48.3669C563.921 48.3669 565.816 51.0417 565.816 55.2767H553.055Z" fill="#322F37"/>
</svg>
