<svg width="138" height="37" viewBox="0 0 138 37" fill="none" xmlns="http://www.w3.org/2000/svg">
<path d="M53.9512 17.8267H61.2258V26.5228C60.4454 27.1731 59.507 27.647 58.4107 27.9443C57.333 28.2416 56.2646 28.3902 55.2054 28.3902C53.9605 28.3902 52.7992 28.1951 51.7215 27.8049C50.6623 27.4147 49.7426 26.8108 48.9621 25.9932C48.1817 25.1571 47.5685 24.0979 47.1226 22.8158C46.6766 21.5337 46.4537 20.01 46.4537 18.2448C46.4537 16.4053 46.7138 14.8445 47.2341 13.5623C47.7729 12.2617 48.4697 11.2118 49.3245 10.4128C50.1978 9.59524 51.1733 9.00993 52.251 8.65689C53.3287 8.28526 54.425 8.09945 55.5399 8.09945C56.6548 8.09945 57.6303 8.18306 58.4665 8.35029C59.3212 8.51753 59.9994 8.69405 60.5011 8.87986L59.7207 12.0851C59.2562 11.8993 58.7359 11.76 58.1599 11.6671C57.5839 11.5556 56.8499 11.4998 55.958 11.4998C55.159 11.4998 54.425 11.6206 53.7561 11.8622C53.0872 12.1037 52.5019 12.5032 52.0002 13.0606C51.5171 13.5995 51.1361 14.2963 50.8574 15.151C50.5973 16.0058 50.4672 17.0463 50.4672 18.2727C50.4672 19.4433 50.5973 20.456 50.8574 21.3107C51.1176 22.1469 51.4799 22.8437 51.9444 23.4011C52.409 23.94 52.9478 24.3395 53.561 24.5996C54.1928 24.8598 54.8617 24.9898 55.5678 24.9898C56.0509 24.9898 56.5247 24.9341 56.9893 24.8226C57.4538 24.6925 57.844 24.5067 58.1599 24.2652V20.5861L53.9512 20.1401V17.8267ZM63.5496 26.1605C63.5496 25.5101 63.754 24.9991 64.1628 24.6275C64.5716 24.2373 65.1104 24.0422 65.7794 24.0422C66.4854 24.0422 67.0429 24.2373 67.4517 24.6275C67.8605 24.9991 68.0649 25.5101 68.0649 26.1605C68.0649 26.8108 67.8605 27.3311 67.4517 27.7213C67.0429 28.1115 66.4854 28.3066 65.7794 28.3066C65.1104 28.3066 64.5716 28.1115 64.1628 27.7213C63.754 27.3311 63.5496 26.8108 63.5496 26.1605ZM81.5017 8.48965H85.1251V21.0878C85.1251 22.3513 84.9579 23.4383 84.6234 24.3488C84.2889 25.2593 83.8244 26.0118 83.2298 26.6064C82.6352 27.201 81.9105 27.6377 81.0558 27.9164C80.201 28.1951 79.2627 28.3345 78.2407 28.3345C73.2981 28.3345 70.8268 26.0768 70.8268 21.5616V8.48965H74.6452V20.809C74.6452 21.5709 74.7103 22.2212 74.8403 22.7601C74.989 23.2804 75.212 23.7077 75.5093 24.0422C75.8066 24.3581 76.1782 24.5903 76.6241 24.739C77.0701 24.8691 77.5904 24.9341 78.185 24.9341C79.3556 24.9341 80.201 24.6089 80.7213 23.9586C81.2416 23.3082 81.5017 22.2584 81.5017 20.809V8.48965ZM87.8831 26.1605C87.8831 25.5101 88.0875 24.9991 88.4963 24.6275C88.9051 24.2373 89.4439 24.0422 90.1128 24.0422C90.8189 24.0422 91.3764 24.2373 91.7852 24.6275C92.194 24.9991 92.3983 25.5101 92.3983 26.1605C92.3983 26.8108 92.194 27.3311 91.7852 27.7213C91.3764 28.1115 90.8189 28.3066 90.1128 28.3066C89.4439 28.3066 88.9051 28.1115 88.4963 27.7213C88.0875 27.3311 87.8831 26.8108 87.8831 26.1605ZM105.164 28V20.0844C105.164 18.9509 104.997 18.1333 104.663 17.6316C104.347 17.13 103.799 16.8791 103.018 16.8791C102.331 16.8791 101.745 17.0835 101.262 17.4923C100.798 17.8825 100.463 18.3749 100.259 18.9695V28H96.6355V14.064H99.5063L99.9244 15.9036H100.036C100.463 15.309 101.03 14.7887 101.736 14.3428C102.442 13.8968 103.353 13.6738 104.468 13.6738C105.155 13.6738 105.768 13.7667 106.307 13.9526C106.846 14.1384 107.301 14.445 107.673 14.8723C108.044 15.2997 108.323 15.885 108.509 16.6283C108.695 17.3529 108.788 18.2541 108.788 19.3318V28H105.164ZM122.972 26.8015C122.415 27.2475 121.653 27.6284 120.687 27.9443C119.739 28.2416 118.727 28.3902 117.649 28.3902C115.4 28.3902 113.756 27.7399 112.715 26.4392C111.675 25.1199 111.155 23.3175 111.155 21.032C111.155 18.5793 111.74 16.7397 112.911 15.5134C114.081 14.287 115.726 13.6738 117.844 13.6738C118.55 13.6738 119.237 13.7667 119.906 13.9526C120.575 14.1384 121.17 14.445 121.69 14.8723C122.21 15.2997 122.629 15.8757 122.944 16.6004C123.26 17.3251 123.418 18.2262 123.418 19.304C123.418 19.6942 123.39 20.1122 123.335 20.5582C123.297 21.0041 123.232 21.4687 123.14 21.9518H114.778C114.834 23.1224 115.131 24.005 115.67 24.5996C116.227 25.1942 117.119 25.4915 118.346 25.4915C119.107 25.4915 119.786 25.38 120.38 25.1571C120.993 24.9155 121.458 24.674 121.774 24.4324L122.972 26.8015ZM117.788 16.5725C116.841 16.5725 116.134 16.8605 115.67 17.4365C115.224 17.994 114.955 18.7465 114.862 19.6942H120.046C120.12 18.6908 119.962 17.9197 119.572 17.3808C119.2 16.8419 118.606 16.5725 117.788 16.5725ZM124.528 14.064H126.451V11.4441L130.074 10.4128V14.064H133.475V17.13H130.074V22.4814C130.074 23.4476 130.167 24.1444 130.353 24.5718C130.558 24.9805 130.929 25.1849 131.468 25.1849C131.84 25.1849 132.156 25.1478 132.416 25.0734C132.694 24.9991 133.001 24.8876 133.335 24.739L133.977 27.5262C133.475 27.7677 132.89 27.9721 132.221 28.1394C131.552 28.3066 130.873 28.3902 130.186 28.3902C128.904 28.3902 127.956 28.065 127.343 27.4147C126.748 26.7458 126.451 25.6588 126.451 24.1537V17.13H124.528V14.064Z" fill="#3E5B72"/>
<path d="M17.9476 9.8785L9.55682 5.00635L1.16602 9.8785V19.6242L9.55682 24.4963L17.9476 19.6242V9.8785Z" stroke="#AA8BEC" stroke-width="1.90345" stroke-miterlimit="10" stroke-linecap="round"/>
<path d="M33.7972 9.8785L25.4064 5.00635L17.0156 9.8785V19.6242L25.4064 24.4963L33.7972 19.6242V9.8785Z" stroke="#AA8BEC" stroke-width="1.90345" stroke-miterlimit="10" stroke-linecap="round"/>
<path d="M25.2886 18.5181L17.4226 13.646L9.55664 18.5181V28.2624L17.4226 33.1359L25.2886 28.2624V18.5181Z" stroke="#AA8BEC" stroke-width="1.90345" stroke-miterlimit="10" stroke-linecap="round"/>
</svg>
