<svg width="120" height="120" viewBox="0 0 120 120" fill="none" xmlns="http://www.w3.org/2000/svg">
<path fill-rule="evenodd" clip-rule="evenodd" d="M33.4367 9.43604L64.5656 27.4583V63.6089L33.4367 81.6312L2.3078 63.6089V27.4583L33.4367 9.43604ZM8.313 31.0365V60.0308L33.4367 74.5763L58.5604 60.0308V31.0365L33.4367 16.491L8.313 31.0365Z" fill="#AA8BEC"/>
<path fill-rule="evenodd" clip-rule="evenodd" d="M86.5635 9.43604L117.692 27.4583V63.6089L86.5635 81.6312L55.4346 63.6089V27.4583L86.5635 9.43604ZM86.5635 16.491L61.4398 31.0365V60.0308L86.5635 74.5763L111.687 60.0308V31.0365L86.5635 16.491Z" fill="#AA8BEC"/>
<path fill-rule="evenodd" clip-rule="evenodd" d="M59.8027 38.2512L89.1724 56.3895V92.4205L59.8027 110.564L30.433 92.4205V56.3895L59.8027 38.2512ZM36.4382 59.8529V88.9577L59.8027 103.391L83.1672 88.9577V59.8529L59.8027 45.4233L36.4382 59.8529Z" fill="#AA8BEC"/>
</svg>
