<svg width="120" height="120" viewBox="0 0 120 120" fill="none" xmlns="http://www.w3.org/2000/svg">
<g clip-path="url(#clip0_407_1207)">
<path d="M104.823 93.4136C103.202 94.4003 101.334 95.3518 99.2195 96.2681C97.1051 97.1844 94.7791 97.8892 92.2418 98.3826C89.7044 98.9464 86.9557 99.2284 83.9954 99.2284C78.2864 99.2284 73.106 98.2416 68.4541 96.2681C63.8023 94.2241 59.8201 91.4753 56.5075 88.0217C53.1948 84.4976 50.6222 80.4802 48.7897 75.9693C47.0276 71.388 46.1466 66.5247 46.1466 61.3796C46.1466 55.882 47.0981 50.772 49.0011 46.0497C50.9041 41.3274 53.5825 37.2043 57.0361 33.6802C60.4897 30.1561 64.5072 27.4073 69.0885 25.4338C73.6698 23.4603 78.6388 22.4735 83.9954 22.4735C87.9424 22.4735 91.6427 23.0021 95.0963 24.0594C98.5499 25.1166 101.686 26.491 104.506 28.1826L102.285 32.9401C99.8186 31.3895 97.0346 30.0856 93.9334 29.0283C90.8322 27.9711 87.5547 27.4425 84.1011 27.4425C79.6608 27.4425 75.4671 28.3235 71.5201 30.0856C67.5731 31.7771 64.0843 34.1735 61.0535 37.2747C58.0933 40.3055 55.7674 43.8648 54.0758 47.9527C52.3843 52.0407 51.5385 56.4458 51.5385 61.1681C51.5385 65.679 52.2785 69.9431 53.7587 73.9606C55.3093 77.978 57.4942 81.5021 60.3135 84.5329C63.2032 87.5636 66.6569 89.96 70.6743 91.722C74.6918 93.4136 79.1674 94.2594 84.1011 94.2594C87.7662 94.2594 91.1141 93.766 94.1448 92.7793C97.246 91.722 99.9948 90.4181 102.391 88.8675L104.823 93.4136Z" fill="black"/>
<path d="M9.3036 60.9567C9.3036 55.6705 10.2903 50.7368 12.2638 46.1555C14.2373 41.5037 16.9861 37.4157 20.5102 33.8916C24.0343 30.297 28.087 27.513 32.6684 25.5395C37.3202 23.4955 42.2891 22.4735 47.5753 22.4735C52.8614 22.4735 57.8304 23.4955 62.4822 25.5395C67.134 27.513 71.222 30.297 74.7461 33.8916C78.2702 37.4157 81.019 41.5037 82.9925 46.1555C85.0364 50.7368 86.0584 55.6705 86.0584 60.9567C86.0584 66.2428 85.0364 71.2118 82.9925 75.8636C81.019 80.4449 78.2702 84.4976 74.7461 88.0217C71.222 91.5458 67.134 94.2946 62.4822 96.2681C57.8304 98.2416 52.8614 99.2284 47.5753 99.2284C42.2891 99.2284 37.3202 98.2768 32.6684 96.3738C28.087 94.4708 24.0343 91.7925 20.5102 88.3389C16.9861 84.8853 14.2373 80.8326 12.2638 76.1808C10.2903 71.529 9.3036 66.4543 9.3036 60.9567ZM14.5897 61.0624C14.5897 65.6437 15.4355 69.9431 17.1271 73.9606C18.8187 77.978 21.1798 81.5021 24.2105 84.5329C27.2412 87.5636 30.7301 89.96 34.6771 91.722C38.6946 93.4136 42.9587 94.2594 47.4696 94.2594C52.1214 94.2594 56.456 93.4136 60.4735 91.722C64.491 89.96 68.015 87.5636 71.0458 84.5329C74.0765 81.5021 76.4376 77.978 78.1292 73.9606C79.8913 69.9431 80.7723 65.6085 80.7723 60.9567C80.7723 56.3753 79.8913 52.0759 78.1292 48.0585C76.4376 43.9705 74.0765 40.4112 71.0458 37.3805C68.015 34.2792 64.491 31.8476 60.4735 30.0856C56.456 28.3235 52.1566 27.4425 47.5753 27.4425C42.9235 27.4425 38.5888 28.3588 34.5714 30.1913C30.5539 31.9533 27.0298 34.385 23.9991 37.4862C21.0388 40.5874 18.7129 44.182 17.0214 48.2699C15.4003 52.2874 14.5897 56.5515 14.5897 61.0624Z" fill="#CB0808"/>
<path d="M35.7408 75.7931C35.7408 81.3612 34.7188 86.1187 32.6749 90.0657C30.6309 94.0127 27.8821 97.0082 24.4285 99.0522C21.0453 101.167 17.2041 102.294 12.9047 102.435V97.4663C17.9794 97.1844 22.173 95.1756 25.4857 91.4401C28.8688 87.7046 30.5604 82.3832 30.5604 75.4759V12.0422H35.7408V75.7931Z" fill="black"/>
<mask id="mask0_407_1207" style="mask-type:alpha" maskUnits="userSpaceOnUse" x="53" y="82" width="25" height="20">
<rect x="53.9187" y="82.4639" width="23.259" height="19.0301" fill="white"/>
</mask>
<g mask="url(#mask0_407_1207)">
<path d="M104.823 93.4136C103.202 94.4003 101.334 95.3518 99.2195 96.2681C97.1051 97.1844 94.7791 97.8892 92.2418 98.3826C89.7044 98.9464 86.9557 99.2284 83.9954 99.2284C78.2864 99.2284 73.106 98.2416 68.4541 96.2681C63.8023 94.2241 59.8201 91.4753 56.5075 88.0217C53.1948 84.4976 50.6222 80.4802 48.7897 75.9693C47.0276 71.388 46.1466 66.5247 46.1466 61.3796C46.1466 55.882 47.0981 50.772 49.0011 46.0497C50.9041 41.3274 53.5825 37.2043 57.0361 33.6802C60.4897 30.1561 64.5072 27.4073 69.0885 25.4338C73.6698 23.4603 78.6388 22.4735 83.9954 22.4735C87.9424 22.4735 91.6427 23.0021 95.0963 24.0594C98.5499 25.1166 101.686 26.491 104.506 28.1826L102.285 32.9401C99.8186 31.3895 97.0346 30.0856 93.9334 29.0283C90.8322 27.9711 87.5547 27.4425 84.1011 27.4425C79.6608 27.4425 75.4671 28.3235 71.5201 30.0856C67.5731 31.7771 64.0843 34.1735 61.0535 37.2747C58.0933 40.3055 55.7674 43.8648 54.0758 47.9527C52.3843 52.0407 51.5385 56.4458 51.5385 61.1681C51.5385 65.679 52.2785 69.9431 53.7587 73.9606C55.3093 77.978 57.4942 81.5021 60.3135 84.5329C63.2032 87.5636 66.6569 89.96 70.6743 91.722C74.6918 93.4136 79.1674 94.2594 84.1011 94.2594C87.7662 94.2594 91.1141 93.766 94.1448 92.7793C97.246 91.722 99.9948 90.4181 102.391 88.8675L104.823 93.4136Z" fill="black"/>
</g>
<mask id="mask1_407_1207" style="mask-type:alpha" maskUnits="userSpaceOnUse" x="18" y="82" width="22" height="20">
<rect x="18.6777" y="82.4639" width="20.4398" height="19.0301" fill="white"/>
</mask>
<g mask="url(#mask1_407_1207)">
<path d="M9.3036 60.9567C9.3036 55.6705 10.2903 50.7368 12.2638 46.1555C14.2373 41.5037 16.9861 37.4157 20.5102 33.8916C24.0343 30.297 28.087 27.513 32.6684 25.5395C37.3202 23.4955 42.2891 22.4735 47.5753 22.4735C52.8614 22.4735 57.8304 23.4955 62.4822 25.5395C67.134 27.513 71.222 30.297 74.7461 33.8916C78.2702 37.4157 81.019 41.5037 82.9925 46.1555C85.0364 50.7368 86.0584 55.6705 86.0584 60.9567C86.0584 66.2428 85.0364 71.2118 82.9925 75.8636C81.019 80.4449 78.2702 84.4976 74.7461 88.0217C71.222 91.5458 67.134 94.2946 62.4822 96.2681C57.8304 98.2416 52.8614 99.2284 47.5753 99.2284C42.2891 99.2284 37.3202 98.2768 32.6684 96.3738C28.087 94.4708 24.0343 91.7925 20.5102 88.3389C16.9861 84.8853 14.2373 80.8326 12.2638 76.1808C10.2903 71.529 9.3036 66.4543 9.3036 60.9567ZM14.5897 61.0624C14.5897 65.6437 15.4355 69.9431 17.1271 73.9606C18.8187 77.978 21.1798 81.5021 24.2105 84.5329C27.2412 87.5636 30.7301 89.96 34.6771 91.722C38.6946 93.4136 42.9587 94.2594 47.4696 94.2594C52.1214 94.2594 56.456 93.4136 60.4735 91.722C64.491 89.96 68.015 87.5636 71.0458 84.5329C74.0765 81.5021 76.4376 77.978 78.1292 73.9606C79.8913 69.9431 80.7723 65.6085 80.7723 60.9567C80.7723 56.3753 79.8913 52.0759 78.1292 48.0585C76.4376 43.9705 74.0765 40.4112 71.0458 37.3805C68.015 34.2792 64.491 31.8476 60.4735 30.0856C56.456 28.3235 52.1566 27.4425 47.5753 27.4425C42.9235 27.4425 38.5888 28.3588 34.5714 30.1913C30.5539 31.9533 27.0298 34.385 23.9991 37.4862C21.0388 40.5874 18.7129 44.182 17.0214 48.2699C15.4003 52.2874 14.5897 56.5515 14.5897 61.0624Z" fill="#CB0808"/>
</g>
</g>
<defs>
<clipPath id="clip0_407_1207">
<rect width="120" height="120" fill="white"/>
</clipPath>
</defs>
</svg>
